<svg id="Layer_1" data-name="Layer 1" xmlns="http://www.w3.org/2000/svg" viewBox="0 0 677.78 119.15"><defs><style>.cls-1{fill:#fff;}</style></defs><path class="cls-1" d="M723,66.55V97a40.62,40.62,0,0,0-12.74-1.82c-19.89,0-31.59,12.48-31.59,34.06,0,21.19,11.18,31.2,26.78,31.2A28.21,28.21,0,0,0,725.07,153l1.95,5.85h19.37V66.55Zm0,60.84c0,9.36-5.59,13.78-11.83,13.78-5.72,0-9.1-3.9-9.1-12.48,0-10.92,4.55-14.3,11.05-14.3a18.87,18.87,0,0,1,9.88,2.86ZM561.45,95.15c-21.19,0-34.45,11.7-34.45,32.63s13.26,32.63,34.45,32.63,34.45-11.7,34.45-32.5S582.64,95.15,561.45,95.15Zm0,46c-7.67,0-10.4-5.07-10.4-13.26s2.73-13.52,10.4-13.52,10.4,5.33,10.4,13.52S569,141.17,561.45,141.17ZM310,95.15c-21.19,0-34.45,11.7-34.45,32.63s13.26,32.63,34.45,32.63,34.45-11.7,34.45-32.5S331.14,95.15,310,95.15Zm0,46c-7.67,0-10.4-5.07-10.4-13.26s2.73-13.52,10.4-13.52,10.4,5.33,10.4,13.52S317.49,141.17,310,141.17ZM217.6,66.55H188.09v92.3H218c30.81,0,51.35-15.34,51.35-47.32C269.34,81.37,250.62,66.55,217.6,66.55Zm.52,71H212V87.87h6.11c16.9,0,26.91,7.8,26.91,23.92C245,130,235,137.53,218.12,137.53Zm275.94-10L484.7,96.45H467.93l-9.49,31.07-8.71-31.07H426.07l21.84,62.4h18.2l10.27-31.2,10.14,31.2h18.07l22-62.4H502.91ZM637.28,95.15c-21.19,0-34.45,11.7-34.45,32.63s13.26,32.63,34.45,32.63,34.45-11.7,34.45-32.5S658.47,95.15,637.28,95.15Zm0,46c-7.67,0-10.4-5.07-10.4-13.26s2.73-13.52,10.4-13.52,10.4,5.33,10.4,13.52S644.82,141.17,637.28,141.17ZM399.69,102.71c-4.29-4.55-10.66-7.8-19.24-7.8-16,0-29,11.44-29,31.33,0,17.55,10.14,28.73,28,28.73,7.28,0,12.61-1.82,16.64-4.81v1.17c0,9.1-5,14.49-15.44,14.49a39.38,39.38,0,0,1-19.25-4.53l-4.42,18.08c5.34,4,15.32,6.12,24.94,6.12,23.4,0,37.57-11.54,37.57-37.8V96.21h-18.2Zm-3.64,22.36c0,7.54-5.07,10.66-11.57,10.66-6.76,0-10.66-3.51-10.66-10.4s4-11.18,11.18-11.18c7.8,0,11.05,4.81,11.05,9.23Z" transform="translate(-68.61 -66.33)"/><path class="cls-1" d="M131.56,136.64l-8.44-2.46c-.1.5-.56,2.32-.7,2.86a35.19,35.19,0,0,1-3.38,8.32l1.09,1.38a24.32,24.32,0,0,0,8.71,6.44A63.61,63.61,0,0,0,147,158.12a94.79,94.79,0,0,0,12.7.9c1.48-.23,3.23-.8,2.65-6.35-1.8-17.16-3.4-21.06-6.54-27.19a28.31,28.31,0,0,0-4.38-6.46,29.45,29.45,0,0,0-13.07-7.73L117,106.43a1.07,1.07,0,0,1,.24-2L139,94.61a1.07,1.07,0,0,1,1.28,1.47l-2.46,8.44c.5.11,2.32.56,2.86.7a34.74,34.74,0,0,1,9,3.81l.34-.26a24.44,24.44,0,0,0,6.44-8.72,63.61,63.61,0,0,0,4.94-18.16,94.7,94.7,0,0,0,.9-12.7c-.23-1.48-.8-3.23-6.36-2.65-17.15,1.8-21.05,3.4-27.18,6.54a28.31,28.31,0,0,0-6.46,4.38,29.24,29.24,0,0,0-7.73,13.08l-4.87,21.37a1.07,1.07,0,0,1-1.94-.24L97.91,89.89a1.07,1.07,0,0,1,1.47-1.28l8.44,2.46c.11-.5.56-2.32.7-2.86A35.39,35.39,0,0,1,112,79.8c-.35-.45-.87-1.1-.92-1.18a24.52,24.52,0,0,0-8.71-6.44,64.26,64.26,0,0,0-18.16-4.94,95.91,95.91,0,0,0-12.7-.89c-1.49.23-3.23.79-2.65,6.35,1.8,17.15,3.4,21.06,6.54,27.18a28.2,28.2,0,0,0,4.38,6.47,29.28,29.28,0,0,0,13.07,7.72l21.38,4.87a1.07,1.07,0,0,1-.24,1.94l-21.78,9.88a1.08,1.08,0,0,1-1.29-1.47l2.47-8.44c-.5-.11-2.32-.56-2.86-.71a34.48,34.48,0,0,1-9.23-3.93l-.36.28a24.32,24.32,0,0,0-6.44,8.71,63.61,63.61,0,0,0-4.94,18.16,95.82,95.82,0,0,0-.89,12.7c.22,1.48.79,3.23,6.35,2.65,17.15-1.8,21.06-3.4,27.18-6.54a28.31,28.31,0,0,0,6.46-4.38,29.27,29.27,0,0,0,7.73-13.07l4.87-21.38a1.07,1.07,0,0,1,1.94.24L133,135.36A1.07,1.07,0,0,1,131.56,136.64Z" transform="translate(-68.61 -66.33)"/></svg>