<?xml version="1.0" encoding="UTF-8" standalone="no"?>
<svg
   xmlns:dc="http://purl.org/dc/elements/1.1/"
   xmlns:cc="http://creativecommons.org/ns#"
   xmlns:rdf="http://www.w3.org/1999/02/22-rdf-syntax-ns#"
   xmlns:svg="http://www.w3.org/2000/svg"
   xmlns="http://www.w3.org/2000/svg"
   xmlns:sodipodi="http://sodipodi.sourceforge.net/DTD/sodipodi-0.dtd"
   xmlns:inkscape="http://www.inkscape.org/namespaces/inkscape"
   version="1.1"
   id="svg2"
   xml:space="preserve"
   width="140"
   viewBox="0 0 256.052 103.35227"
   sodipodi:docname="Stand_Logo_earth_bottom_red (3).ai"><metadata
     id="metadata8"><rdf:RDF><cc:Work
         rdf:about=""><dc:format>image/svg+xml</dc:format><dc:type
           rdf:resource="http://purl.org/dc/dcmitype/StillImage" /></cc:Work></rdf:RDF></metadata><defs
     id="defs6"><clipPath
       clipPathUnits="userSpaceOnUse"
       id="clipPath18"><path
         d="M 0,77.514 H 192.039 V 0 H 0 Z"
         id="path16" /></clipPath></defs><sodipodi:namedview
     pagecolor="#ffffff"
     bordercolor="#666666"
     borderopacity="1"
     objecttolerance="10"
     gridtolerance="10"
     guidetolerance="10"
     inkscape:pageopacity="0"
     inkscape:pageshadow="2"
     inkscape:window-width="640"
     inkscape:window-height="480"
     id="namedview4" /><g
     id="g10"
     inkscape:groupmode="layer"
     inkscape:label="Stand_Logo_earth_bottom_red (3)"
     transform="matrix(1.3333333,0,0,-1.3333333,0,103.35227)"><g
       id="g12"><g
         id="g14"
         clip-path="url(#clipPath18)"><g
           id="g20"
           transform="translate(142.1504,14.6729)"><path
             d="M 0,0 C -0.164,1.259 -0.906,2.108 -2.092,2.108 -3.258,2.108 -4.016,1.276 -4.238,0 Z m -6.998,-0.835 v 0.039 c 0,2.831 2.019,5.162 4.906,5.162 3.315,0 4.834,-2.572 4.834,-5.387 0,-0.218 -0.021,-0.48 -0.037,-0.738 h -6.906 c 0.277,-1.279 1.168,-1.943 2.425,-1.943 0.944,0 1.631,0.295 2.407,1.017 L 2.242,-4.11 c -0.926,-1.149 -2.262,-1.853 -4.055,-1.853 -2.98,0 -5.185,2.093 -5.185,5.128"
             style="fill:#ffffff;fill-opacity:1;fill-rule:nonzero;stroke:none"
             id="path22" /></g><g
           id="g24"
           transform="translate(152.4824,12.4316)"><path
             d="m 0,0 v 0.501 c -0.481,0.221 -1.111,0.37 -1.797,0.37 -1.199,0 -1.943,-0.48 -1.943,-1.371 v -0.036 c 0,-0.76 0.631,-1.204 1.539,-1.204 C -0.889,-1.74 0,-1.018 0,0 m -6.46,-0.646 v 0.037 c 0,2.166 1.648,3.166 3.997,3.166 1,0 1.725,-0.168 2.428,-0.41 v 0.167 c 0,1.165 -0.724,1.815 -2.129,1.815 C -3.24,4.129 -4,3.928 -4.906,3.593 L -5.609,5.74 c 1.093,0.481 2.166,0.795 3.85,0.795 1.538,0 2.648,-0.404 3.353,-1.109 0.739,-0.74 1.072,-1.833 1.072,-3.165 v -5.759 h -2.721 v 1.074 c -0.683,-0.76 -1.629,-1.258 -3,-1.258 -1.869,0 -3.405,1.075 -3.405,3.036"
             style="fill:#ffffff;fill-opacity:1;fill-rule:nonzero;stroke:none"
             id="path26" /></g><g
           id="g28"
           transform="translate(156.7041,18.8545)"><path
             d="M 0,0 H 2.814 V -1.997 C 3.387,-0.628 4.313,0.26 5.981,0.187 V -2.759 H 5.83 c -1.868,0 -3.016,-1.127 -3.016,-3.498 v -3.664 l -2.814,0 z"
             style="fill:#ffffff;fill-opacity:1;fill-rule:nonzero;stroke:none"
             id="path30" /></g><g
           id="g32"
           transform="translate(165.0342,11.7461)"><path
             d="M 0,0 V 4.704 H -1.183 V 7.108 H 0 v 2.54 H 2.815 V 7.108 H 5.148 V 4.704 H 2.815 V 0.463 c 0,-0.647 0.279,-0.961 0.907,-0.961 0.519,0 0.982,0.129 1.386,0.352 v -2.26 C 4.517,-2.759 3.833,-2.98 2.89,-2.98 1.167,-2.98 0,-2.296 0,0"
             style="fill:#ffffff;fill-opacity:1;fill-rule:nonzero;stroke:none"
             id="path34" /></g><g
           id="g36"
           transform="translate(171.8867,22.4482)"><path
             d="m 0,0 h 2.813 v -4.999 c 0.65,0.833 1.481,1.59 2.908,1.59 2.128,0 3.368,-1.403 3.368,-3.682 v -6.424 H 6.277 v 5.537 c 0,1.331 -0.631,2.014 -1.706,2.014 -1.074,0 -1.758,-0.683 -1.758,-2.014 v -5.537 H 0 Z"
             style="fill:#ffffff;fill-opacity:1;fill-rule:nonzero;stroke:none"
             id="path38" /></g><g
           id="g40"
           transform="translate(133.5449,11.8457)"><path
             d="m 0,0 c 0.585,0 0.864,-0.151 0.864,-0.471 v -2.003 c 0,-0.317 -0.279,-0.47 -0.864,-0.47 h -1.349 c -0.584,0 -0.862,0.153 -0.862,0.47 v 2.003 c 0,0.32 0.278,0.471 0.862,0.471 z"
             style="fill:#ffffff;fill-opacity:1;fill-rule:nonzero;stroke:none"
             id="path42" /></g><g
           id="g44"
           transform="translate(25.0542,24.5313)"><path
             d="m 0,0 c -6.007,0 -10.791,1.279 -13.629,2.781 -1.112,0.555 -1.558,1.168 -1.057,2.502 l 1.948,5.176 c 0.5,1.279 1.222,1.725 2.557,1.168 1.893,-0.781 4.563,-1.67 7.901,-1.67 3.059,0 5.621,0.445 5.621,2.336 0,1.447 -2.116,2.282 -5.564,3.451 -6.009,2.004 -12.184,4.562 -12.184,13.351 0,8.179 5.897,11.517 15.186,11.517 5.453,0 9.793,-1.335 12.018,-2.56 1.112,-0.612 1.557,-1.168 1.057,-2.503 l -1.891,-4.895 c -0.501,-1.28 -1.225,-1.614 -2.56,-1.168 -2.171,0.722 -5.007,1.168 -7.344,1.168 -2.391,0 -4.339,-0.225 -4.339,-2.003 0,-1.447 1.892,-2.337 5.508,-3.672 6.51,-2.393 12.24,-4.34 12.24,-12.741 C 15.468,3.281 8.124,0 0,0"
             style="fill:#ffffff;fill-opacity:1;fill-rule:nonzero;stroke:none"
             id="path46" /></g><g
           id="g48"
           transform="translate(41.2983,61.9165)"><path
             d="m 0,0 c 0,1.391 0.612,2.004 2.002,2.004 h 26.372 c 1.391,0 2.002,-0.613 2.002,-2.004 v -6.676 c 0,-1.389 -0.611,-2.003 -2.002,-2.003 h -7.122 v -26.704 c 0,-1.391 -0.612,-2.002 -2.002,-2.002 h -8.123 c -1.391,0 -2.003,0.611 -2.003,2.002 V -8.679 H 2.002 C 0.612,-8.679 0,-8.065 0,-6.676 Z"
             style="fill:#ffffff;fill-opacity:1;fill-rule:nonzero;stroke:none"
             id="path50" /></g><g
           id="g52"
           transform="translate(142.7695,26.5332)"><path
             d="m 0,0 c 0,-1.391 -0.613,-2.002 -2.004,-2.002 h -7.732 c -1.393,0 -1.891,0.334 -2.391,1.225 L -21.92,17.025 V 0 c 0,-1.391 -0.613,-2.002 -2.002,-2.002 h -7.68 c -1.39,0 -2.002,0.611 -2.002,2.002 v 35.384 c 0,1.391 0.612,2.003 2.002,2.003 h 7.737 c 1.388,0 1.89,-0.334 2.388,-1.224 l 9.793,-17.802 v 17.023 c 0,1.391 0.614,2.003 2.004,2.003 h 7.676 C -0.613,37.387 0,36.775 0,35.384 Z"
             style="fill:#ffffff;fill-opacity:1;fill-rule:nonzero;stroke:none"
             id="path54" /></g><g
           id="g56"
           transform="translate(159.5684,53.4604)"><path
             d="m 0,0 v -18.47 h 1.727 c 5.23,0 7.619,1.947 7.619,9.236 C 9.346,-1.947 6.957,0 1.727,0 Z m -10.125,-28.929 c -1.391,0 -2.004,0.611 -2.004,2.002 V 8.456 c 0,1.391 0.613,2.004 2.004,2.004 H 2.279 c 12.854,0 19.309,-5.842 19.309,-19.694 0,-13.853 -6.455,-19.695 -19.309,-19.695 z"
             style="fill:#ffffff;fill-opacity:1;fill-rule:nonzero;stroke:none"
             id="path58" /></g><g
           id="g60"
           transform="translate(106.0576,26.9385)"><path
             d="m 0,0 -11.589,35.434 c -0.391,1.175 -0.951,1.793 -2.407,1.793 h -10.076 c -1.456,0 -2.015,-0.618 -2.407,-1.793 L -38.066,0 c -0.504,-1.456 0.167,-2.407 1.51,-2.407 h 7.673 l 0.732,2.43 h 7.733 l 0.02,8.747 -4.887,0.006 6.25,18.605 0.001,-0.027 10e-4,0.027 5.97,-18.605 h -4.719 l 0.016,-8.753 h 7.641 l 0.783,-2.352 7.83,-0.078 C -0.168,-2.407 0.504,-1.456 0,0"
             style="fill:#ffffff;fill-opacity:1;fill-rule:nonzero;stroke:none"
             id="path62" /></g></g></g></g></svg>
